<svg viewBox="0 0 300 300" xmlns="http://www.w3.org/2000/svg">
  <!-- CBC Logo Recreation based on provided image -->
  
  <!-- Top semicircle -->
  <path d="M 150 30 A 60 60 0 0 1 210 90 L 150 90 Z" fill="#FF0000"/>
  
  <!-- Top row quarter circles -->
  <path d="M 90 90 A 60 60 0 0 1 30 30 L 90 30 Z" fill="#FF0000"/>
  <path d="M 210 90 A 60 60 0 0 1 270 30 L 270 90 Z" fill="#FF0000"/>
  
  <!-- Middle row -->
  <path d="M 30 90 A 60 60 0 0 1 90 150 L 30 150 Z" fill="#FF0000"/>
  <path d="M 90 90 A 60 60 0 0 1 150 150 L 90 150 Z" fill="#FF0000"/>
  <circle cx="150" cy="150" r="60" fill="#FF0000"/>
  <path d="M 210 90 A 60 60 0 0 1 270 150 L 210 150 Z" fill="#FF0000"/>
  <path d="M 270 90 A 60 60 0 0 1 330 150 L 270 150 Z" fill="#FF0000"/>
  
  <!-- Bottom row -->
  <path d="M 30 210 A 60 60 0 0 1 90 150 L 90 210 Z" fill="#FF0000"/>
  <path d="M 90 210 A 60 60 0 0 1 150 270 L 90 270 Z" fill="#FF0000"/>
  <path d="M 150 210 A 60 60 0 0 1 210 270 L 150 270 Z" fill="#FF0000"/>
  <path d="M 210 210 A 60 60 0 0 1 270 150 L 270 210 Z" fill="#FF0000"/>
  
  <!-- Bottom semicircle -->
  <path d="M 150 210 A 60 60 0 0 1 90 270 L 150 270 Z" fill="#FF0000"/>
</svg>